<?xml version="1.0" encoding="UTF-8" standalone="no"?>
<svg
   xmlns:dc="http://purl.org/dc/elements/1.1/"
   xmlns:cc="http://creativecommons.org/ns#"
   xmlns:rdf="http://www.w3.org/1999/02/22-rdf-syntax-ns#"
   xmlns:svg="http://www.w3.org/2000/svg"
   xmlns="http://www.w3.org/2000/svg"
   xmlns:xlink="http://www.w3.org/1999/xlink"
   version="1.0"
   height="540"
   width="1052"
   id="svg2440">
  <metadata
     id="metadata2445">
    <rdf:RDF>
      <cc:Work
         rdf:about="">
        <dc:format>image/svg+xml</dc:format>
        <dc:type
           rdf:resource="http://purl.org/dc/dcmitype/StillImage" />
        <dc:title></dc:title>
      </cc:Work>
    </rdf:RDF>
  </metadata>
  <defs
     id="defs2443" />
  <path
     id="path4539"
     d="m 104.07821,180.59327 c 13.6455,41.99695 27.291,83.99392 40.93651,125.99087 -35.72432,-25.95566 -71.448638,-51.91132 -107.172949,-77.86698 44.157621,0 88.315239,0 132.472859,0 -35.7243,25.95566 -71.448618,51.91132 -107.172918,77.86698 13.64549,-41.99695 27.291,-83.99392 40.936498,-125.99087 z"
     style="fill:none;stroke:#000000;stroke-width:8.76071072;stroke-miterlimit:4;stroke-dasharray:none" />
  <use
     height="744.09448"
     width="1052.3622"
     transform="translate(843.8436,1.5526185e-6)"
     id="use5053"
     xlink:href="#path4539"
     y="0"
     x="0" />
  <g
     transform="matrix(1.0950888,0,0,1.0950888,-46.233786,-118.40784)"
     id="g4148">
    <path
       style="fill:none;fill-opacity:1;fill-rule:evenodd;stroke:#000000;stroke-width:17;stroke-linecap:butt;stroke-linejoin:miter;stroke-miterlimit:4;stroke-dasharray:none;stroke-opacity:1"
       d="m 280.03358,246.49572 c -14.95317,-24.1148 11.24472,-43.25745 29.05927,-56.2893 24.51875,-17.93618 51.96986,-26.74306 63.89458,-17.83133 27.66632,20.67593 5.1646,62.40941 -13.60056,73.74801 -25.64428,15.49522 -62.01253,28.33787 -79.35329,0.37262 z"
       id="path5055" />
    <use
       x="0"
       y="0"
       xlink:href="#path5055"
       id="use5070"
       transform="translate(0,197.20073)"
       width="1052.3622"
       height="744.09448" />
    <use
       x="0"
       y="0"
       xlink:href="#path5055"
       id="use5072"
       transform="matrix(-1,0,0,1,1073.3515,0)"
       width="1052.3622"
       height="744.09448" />
    <use
       x="0"
       y="0"
       xlink:href="#use5072"
       id="use5074"
       transform="translate(0,204.32847)"
       width="1052.3622"
       height="744.09448" />
    <path
       style="fill:#000000;fill-opacity:1;fill-rule:evenodd;stroke:none;stroke-width:1px;stroke-linecap:butt;stroke-linejoin:miter;stroke-opacity:1"
       d="m 326.34375,150.6875 c -0.97489,0.002 -2.01129,0.0703 -3.125,0.21875 -12.41231,1.65498 -9.42576,56.82545 8.6875,76.8125 22.96716,25.34306 71.48086,42.79968 92.65625,45.15625 28.42099,3.16292 85.26021,4.57289 112.78125,4.40625 27.52522,0.16619 84.33281,-1.24376 112.75,-4.40625 21.17538,-2.35657 69.68909,-19.81319 92.65625,-45.15625 18.11328,-19.98705 21.13106,-75.15752 8.71875,-76.8125 -17.81932,-2.37592 -17.3369,14.6788 -16,31.03125 1.41326,17.28624 -7.05775,38.81227 -14.90625,44.21875 -13.36234,9.20471 -88.64241,16.61582 -113.25,18.21875 -11.55969,0.75299 -41.26557,-1.48711 -70,-0.46875 -28.72474,-1.01564 -58.41325,1.22147 -69.96875,0.46875 -24.60759,-1.60293 -99.88767,-9.01404 -113.25,-18.21875 -7.8485,-5.40648 -16.31949,-26.93251 -14.90625,-44.21875 1.25334,-15.33042 1.77956,-31.27316 -12.84375,-31.25 z"
       id="path5076" />
    <use
       x="0"
       y="0"
       xlink:href="#path5076"
       id="use5083"
       transform="translate(0,201.16058)"
       width="1052.3622"
       height="744.09448"
       style="fill:#000000;fill-opacity:1;stroke:none" />
    <path
       style="fill:#000000;fill-opacity:1;fill-rule:evenodd;stroke:none;stroke-width:0.6680361px;stroke-linecap:butt;stroke-linejoin:miter;stroke-opacity:1"
       d="m 390.78125,281.5 c -4.64736,0.0891 -8.63797,4.28555 -11.0625,10.28125 -3.13601,7.75518 -2.41282,38.52294 9.6875,51.875 15.3429,16.93007 47.76033,25.80073 61.90625,27.375 17.75175,1.97556 51.89379,2.91374 71.3125,2.9375 1.35041,0.002 2.83585,0.007 4.03125,0 0.77367,0.002 1.63805,10e-4 2.46875,0 19.42165,-0.0243 53.56577,-0.9625 71.3125,-2.9375 14.14592,-1.57427 46.56337,-10.44493 61.90625,-27.375 12.10032,-13.35206 12.8235,-44.11982 9.6875,-51.875 -2.98404,-7.37932 -8.34943,-12.01969 -14.375,-9.65625 -7.90761,3.10162 -2.61851,16.32123 -1.78125,26.5625 0.94407,11.54782 -7.9132,21.16953 -13.15625,24.78125 -8.92652,6.14909 -25.95311,10.31399 -52.6875,12.96875 -7.45606,0.7404 -43.06288,2.04948 -62.75,2.75 -0.17596,-0.20575 -0.38291,-0.20388 -0.59375,0.0312 -0.23708,0.008 -0.58048,0.023 -0.8125,0.0312 -0.23202,-0.008 -0.57542,-0.0228 -0.8125,-0.0312 -0.2126,-0.24026 -0.41654,-0.23846 -0.59375,-0.0312 -19.6871,-0.70052 -55.32519,-2.0096 -62.78125,-2.75 -26.73437,-2.65476 -43.76098,-6.81966 -52.6875,-12.96875 -5.24309,-3.61172 -14.06907,-13.23343 -13.125,-24.78125 0.83725,-10.24127 6.12636,-23.46088 -1.78125,-26.5625 -1.1298,-0.44314 -2.24003,-0.64556 -3.3125,-0.625 z"
       id="path5085" />
    <path
       id="path5093"
       d="m 629.76006,162.03682 c -6.16163,-16.0951 -26.76431,-25.57206 -39.41931,-27.20534 -27.11139,-3.49905 -35.06904,8.48665 -43.77203,15.9676 -15.52432,13.34447 -31.83875,75.60843 -33.96416,96.80827 -1.57898,15.74946 -7.36486,84.46824 -7.19822,111.98928 -0.16619,27.52522 0.35892,83.37106 -0.20969,111.95803 -0.44347,22.2954 -0.88973,72.22223 23.45182,96.24826 14.94698,14.75323 50.51717,8.81089 93.05273,-31.60182 -6.65215,-7.78965 -15.50193,-17.58395 -23.89271,-26.10374 -5.59074,8.28045 -14.33267,16.09657 -21.13874,19.62387 -8.01625,4.15449 -24.0201,10.82271 -30.21855,6.14209 -12.94876,-9.77796 -5.41566,-78.89031 -4.77856,-103.4979 0.29982,-11.58031 -0.19292,-43.5056 1.58876,-72.80004 0.45564,-27.60472 2.69859,-57.85324 3.45131,-69.40874 1.60293,-24.60759 11.97969,-88.33266 17.09873,-103.72987 3.72646,-11.20854 20.77243,-31.4397 33.01859,-30.58647 15.34437,1.06909 13.35291,3.45958 32.93003,6.19652 z"
       style="fill:#000000;fill-opacity:1;fill-rule:evenodd;stroke:none;stroke-width:1px;stroke-linecap:butt;stroke-linejoin:miter;stroke-opacity:1" />
  </g>
</svg>
