<?xml version="1.0" encoding="UTF-8" standalone="no"?>
<!DOCTYPE svg PUBLIC "-//W3C//DTD SVG 1.0//EN" "http://www.w3.org/TR/2001/REC-SVG-20010904/DTD/svg10.dtd">
<svg xmlns:svg="http://www.w3.org/2000/svg" xmlns="http://www.w3.org/2000/svg" version="1.0" 
 width="444" height="340" viewBox="-1 -1 222 170" >
 <path d="M 177,72 L 28,72 C 28,72 27,72 27,72 L 27,104 C 38,104 46,105 52,106 C 64,109 70,113 76,118 
  C 80,121 84,126 89,131 C 96,139 105,149 119,156 C 133,164 151,168 177,168 C 177,168 177,168 177,168 L 177,136 
  C 154,136 141,132 133,128 C 126,124 122,120 117,115 C 114,112 111,108 107,104 L 177,104 L 177,72 z"
  style="fill:#0000A0" />
 <path d="M 220,24 L 177,0 L 177,8 C 164,8 154,9 145,11 C 128,15 116,22 107,30 C 100,35 96,41 91,46 
  C 84,54 79,60 71,64 C 65,67 58,69 48,71 C 43,65 36,61 27,61 C 12,61 0,73 0,88 C 0,103 12,115 27,115 
  C 37,115 46,110 50,103 C 65,101 76,97 86,92 C 96,87 104,80 110,73 C 115,68 118,64 122,60 C 127,54 132,50 140,46 
  C 148,43 159,40 177,40 L 177,49 L 220,24 z"  style="fill:#B00000" />
</svg>